<?xml version="1.0" standalone="no"?>
<!DOCTYPE svg PUBLIC "-//W3C//DTD SVG 20010904//EN"
 "http://www.w3.org/TR/2001/REC-SVG-20010904/DTD/svg10.dtd">
<svg version="1.0" xmlns="http://www.w3.org/2000/svg"
 width="100.000000pt" height="100.000000pt" viewBox="0 0 100.000000 100.000000"
 preserveAspectRatio="xMidYMid meet">
<metadata>
Created by potrace 1.14, written by Peter Selinger 2001-2017
</metadata>
<g transform="translate(0.000000,100.000000) scale(0.100000,-0.100000)"
fill="#000000" stroke="none">
<path d="M231 787 c-18 -18 -13 -97 10 -144 27 -56 65 -86 99 -78 34 9 35 11
16 30 -14 15 -20 36 -19 72 1 7 -3 10 -8 7 -5 -3 -9 0 -9 5 0 6 0 13 0 16 0 3
-9 14 -20 25 -11 11 -20 29 -20 41 0 13 -4 18 -12 13 -7 -4 -8 -3 -4 5 10 15
26 4 26 -17 0 -9 5 -24 10 -32 7 -11 8 -5 4 20 -4 19 -8 37 -10 39 -8 9 -53 8
-63 -2z"/>
<path d="M314 766 c1 -8 5 -18 8 -22 4 -3 5 1 4 10 -1 8 -5 18 -8 22 -4 3 -5
-1 -4 -10z"/>
<path d="M405 703 c1 -10 -3 -24 -9 -32 -8 -11 -8 -13 2 -7 7 4 12 2 12 -4 0
-6 5 -8 13 -4 7 5 6 0 -3 -11 -9 -11 -10 -16 -2 -11 8 5 12 1 12 -12 0 -10
-11 -25 -25 -32 -13 -7 -22 -17 -18 -23 3 -5 10 -3 15 4 8 11 9 10 4 -3 -3
-12 4 -24 22 -35 14 -10 55 -46 89 -81 48 -48 65 -59 69 -48 3 9 10 13 16 10
5 -3 2 -11 -8 -18 -15 -11 -11 -20 41 -92 66 -92 131 -164 148 -164 32 0 56
14 66 37 10 22 9 29 -10 49 -12 13 -26 22 -32 21 -6 -1 -11 3 -12 10 0 11
-155 149 -155 138 0 -2 -8 2 -17 10 -10 8 -21 15 -26 15 -32 -1 -109 67 -112
99 -1 11 -7 27 -15 36 -8 9 -13 32 -12 51 3 35 -16 82 -42 103 -12 10 -14 9
-11 -6z m239 -333 c4 0 4 6 0 13 -4 7 -3 9 2 4 5 -5 9 -12 9 -17 0 -10 84
-100 94 -100 4 0 16 -9 26 -20 10 -12 24 -19 31 -16 7 3 19 -3 28 -13 15 -16
15 -20 -4 -41 -22 -26 -27 -20 -8 10 10 15 10 22 1 31 -9 9 -11 7 -7 -8 4 -13
0 -22 -10 -26 -26 -10 -41 1 -65 49 -12 25 -46 69 -76 97 -30 28 -55 56 -55
61 0 6 7 3 14 -6 7 -10 16 -18 20 -18z m131 -208 c-3 -3 -16 5 -28 17 l-22 23
28 -17 c15 -10 25 -20 22 -23z"/>
</g>
</svg>
